<?xml version="1.0" encoding="UTF-8"?>
<!-- Description: Minimal "moon x soccer ball" mark for OTM – scalable, single-color friendly. -->
<svg width="256" height="256" viewBox="0 0 256 256" xmlns="http://www.w3.org/2000/svg" fill="none">
  <!-- Outer disc -->
  <circle cx="128" cy="128" r="110" fill="#0A0A0A" stroke="#FACC15" stroke-width="4"/>
  <!-- Crescent (moon) cut using a lighter arc overlay -->
  <path d="M168 48c-22 10-38 33-38 60s16 50 38 60c-8 3-17 5-26 5-38 0-68-30-68-68s30-68 68-68c9 0 18 2 26 5z" fill="#121212"/>
  <!-- Pentagons/hex hints (very subtle) -->
  <g stroke="#3A3A3A" stroke-width="3" opacity="0.6">
    <path d="M128 72l22 16-8 26h-28l-8-26 22-16z" fill="#111"/>
    <path d="M150 88l28 2 10 24-20 20-24-8 6-38z"/>
    <path d="M106 88l-28 2-10 24 20 20 24-8-6-38z"/>
    <path d="M96 134l-18 22 18 26 26-8-6-32-20-8z"/>
    <path d="M160 134l18 22-18 26-26-8 6-32 20-8z"/>
  </g>
  <!-- Subtle inner glow ring -->
  <circle cx="128" cy="128" r="100" stroke="#FACC15" stroke-opacity="0.35" stroke-width="2"/>
</svg>


